<?xml version="1.0" encoding="UTF-8"?>
<svg xmlns="http://www.w3.org/2000/svg" width="890" height="520" viewBox="0 0 890 520">
  <rect x="0" y="0" width="890" height="520" fill="#fafafa"/>
  <g transform="translate(24, 24)">
  <style>
    .mm-text { fill: #1f2933; font-family: -apple-system, BlinkMacSystemFont, 'Segoe UI', Roboto, 'Helvetica Neue', Arial, 'PingFang SC', 'Microsoft YaHei', sans-serif; font-size: 14px; }
    .mm-root-text { fill: #ffffff; font-family: -apple-system, BlinkMacSystemFont, 'Segoe UI', Roboto, 'Helvetica Neue', Arial, 'PingFang SC', 'Microsoft YaHei', sans-serif; font-size: 14px; font-weight: 600; }
  </style>
    <path d="M 405 236 C 360 236, 360 82, 315 82" fill="none" stroke="#9aa5b1" stroke-width="1.2"/>
    <path d="M 405 236 C 360 236, 360 324, 315 324" fill="none" stroke="#9aa5b1" stroke-width="1.2"/>
    <path d="M 479 236 C 524 236, 524 192, 569 192" fill="none" stroke="#9aa5b1" stroke-width="1.2"/>
    <path d="M 479 236 C 524 236, 524 280, 569 280" fill="none" stroke="#9aa5b1" stroke-width="1.2"/>
    <path d="M 255 82 C 210 82, 210 16, 165 16" fill="none" stroke="#9aa5b1" stroke-width="1.2"/>
    <path d="M 255 82 C 210 82, 210 60, 165 60" fill="none" stroke="#9aa5b1" stroke-width="1.2"/>
    <path d="M 255 82 C 210 82, 210 104, 165 104" fill="none" stroke="#9aa5b1" stroke-width="1.2"/>
    <path d="M 255 82 C 210 82, 210 148, 165 148" fill="none" stroke="#9aa5b1" stroke-width="1.2"/>
    <path d="M 255 324 C 210 324, 210 192, 165 192" fill="none" stroke="#9aa5b1" stroke-width="1.2"/>
    <path d="M 255 324 C 210 324, 210 236, 165 236" fill="none" stroke="#9aa5b1" stroke-width="1.2"/>
    <path d="M 255 324 C 210 324, 210 280, 165 280" fill="none" stroke="#9aa5b1" stroke-width="1.2"/>
    <path d="M 255 324 C 210 324, 210 324, 165 324" fill="none" stroke="#9aa5b1" stroke-width="1.2"/>
    <path d="M 255 324 C 210 324, 210 368, 165 368" fill="none" stroke="#9aa5b1" stroke-width="1.2"/>
    <path d="M 255 324 C 210 324, 210 412, 165 412" fill="none" stroke="#9aa5b1" stroke-width="1.2"/>
    <path d="M 255 324 C 210 324, 210 456, 165 456" fill="none" stroke="#9aa5b1" stroke-width="1.2"/>
    <path d="M 629 192 C 674 192, 674 170, 719 170" fill="none" stroke="#9aa5b1" stroke-width="1.2"/>
    <path d="M 629 192 C 674 192, 674 214, 719 214" fill="none" stroke="#9aa5b1" stroke-width="1.2"/>
    <path d="M 629 280 C 674 280, 674 258, 719 258" fill="none" stroke="#9aa5b1" stroke-width="1.2"/>
    <path d="M 629 280 C 674 280, 674 302, 719 302" fill="none" stroke="#9aa5b1" stroke-width="1.2"/>
    <rect x="405" y="220" width="74" height="32" rx="8" fill="#1f2933" stroke="none" stroke-width="1.2"/>
    <text class="mm-root-text" x="442" y="240.9" text-anchor="middle">思维导图工具</text>
    <rect x="255" y="66" width="60" height="32" rx="6" fill="#ffffff" stroke="#c3cad2" stroke-width="1.2"/>
    <text class="mm-text" x="285" y="86.9" text-anchor="middle">核心原则</text>
    <rect x="105" y="0" width="60" height="32" rx="6" fill="#ffffff" stroke="#c3cad2" stroke-width="1.2"/>
    <text class="mm-text" x="135" y="20.9" text-anchor="middle">极简</text>
    <rect x="105" y="44" width="60" height="32" rx="6" fill="#ffffff" stroke="#c3cad2" stroke-width="1.2"/>
    <text class="mm-text" x="135" y="64.9" text-anchor="middle">解耦</text>
    <rect x="105" y="88" width="60" height="32" rx="6" fill="#ffffff" stroke="#c3cad2" stroke-width="1.2"/>
    <text class="mm-text" x="135" y="108.9" text-anchor="middle">轻量</text>
    <rect x="105" y="132" width="60" height="32" rx="6" fill="#ffffff" stroke="#c3cad2" stroke-width="1.2"/>
    <text class="mm-text" x="135" y="152.9" text-anchor="middle">零依赖</text>
    <rect x="255" y="308" width="60" height="32" rx="6" fill="#ffffff" stroke="#c3cad2" stroke-width="1.2"/>
    <text class="mm-text" x="285" y="328.9" text-anchor="middle">架构分层</text>
    <rect x="56" y="176" width="109" height="32" rx="6" fill="#ffffff" stroke="#c3cad2" stroke-width="1.2"/>
    <text class="mm-text" x="110.5" y="196.9" text-anchor="middle">domain 领域模型</text>
    <rect x="49" y="220" width="116" height="32" rx="6" fill="#ffffff" stroke="#c3cad2" stroke-width="1.2"/>
    <text class="mm-text" x="107" y="240.9" text-anchor="middle">storage 存储抽象</text>
    <rect x="49" y="264" width="116" height="32" rx="6" fill="#ffffff" stroke="#c3cad2" stroke-width="1.2"/>
    <text class="mm-text" x="107" y="284.9" text-anchor="middle">convert 格式转换</text>
    <rect x="56" y="308" width="109" height="32" rx="6" fill="#ffffff" stroke="#c3cad2" stroke-width="1.2"/>
    <text class="mm-text" x="110.5" y="328.9" text-anchor="middle">layout 自动布局</text>
    <rect x="35" y="352" width="130" height="32" rx="6" fill="#ffffff" stroke="#c3cad2" stroke-width="1.2"/>
    <text class="mm-text" x="100" y="372.9" text-anchor="middle">rendering 渲染输出</text>
    <rect x="21" y="396" width="144" height="32" rx="6" fill="#ffffff" stroke="#c3cad2" stroke-width="1.2"/>
    <text class="mm-text" x="93" y="416.9" text-anchor="middle">application 用例编排</text>
    <rect x="0" y="440" width="165" height="32" rx="6" fill="#ffffff" stroke="#c3cad2" stroke-width="1.2"/>
    <text class="mm-text" x="82.5" y="460.9" text-anchor="middle">presentation CLI 入口</text>
    <rect x="569" y="176" width="60" height="32" rx="6" fill="#ffffff" stroke="#c3cad2" stroke-width="1.2"/>
    <text class="mm-text" x="599" y="196.9" text-anchor="middle">数据交换</text>
    <rect x="719" y="154" width="116" height="32" rx="6" fill="#ffffff" stroke="#c3cad2" stroke-width="1.2"/>
    <text class="mm-text" x="777" y="174.9" text-anchor="middle">mm.json 原生格式</text>
    <rect x="719" y="198" width="123" height="32" rx="6" fill="#ffffff" stroke="#c3cad2" stroke-width="1.2"/>
    <text class="mm-text" x="780.5" y="218.9" text-anchor="middle">markdown 双向转换</text>
    <rect x="569" y="264" width="60" height="32" rx="6" fill="#ffffff" stroke="#c3cad2" stroke-width="1.2"/>
    <text class="mm-text" x="599" y="284.9" text-anchor="middle">可视化</text>
    <rect x="719" y="242" width="67" height="32" rx="6" fill="#ffffff" stroke="#c3cad2" stroke-width="1.2"/>
    <text class="mm-text" x="752.5" y="262.9" text-anchor="middle">左右平衡树</text>
    <rect x="719" y="286" width="88" height="32" rx="6" fill="#ffffff" stroke="#c3cad2" stroke-width="1.2"/>
    <text class="mm-text" x="763" y="306.9" text-anchor="middle">SVG 矢量输出</text>
  </g>
</svg>
