<?xml version="1.0" encoding="UTF-8"?>
<svg xmlns="http://www.w3.org/2000/svg" width="750" height="432" viewBox="0 0 750 432">
  <rect x="0" y="0" width="750" height="432" fill="#fafafa"/>
  <g transform="translate(24, 24)">
  <style>
    .mm-text { fill: #1f2933; font-family: -apple-system, BlinkMacSystemFont, 'Segoe UI', Roboto, 'Helvetica Neue', Arial, 'PingFang SC', 'Microsoft YaHei', sans-serif; font-size: 14px; }
    .mm-root-text { fill: #ffffff; font-family: -apple-system, BlinkMacSystemFont, 'Segoe UI', Roboto, 'Helvetica Neue', Arial, 'PingFang SC', 'Microsoft YaHei', sans-serif; font-size: 14px; font-weight: 600; }
  </style>
    <path d="M 314 192 C 269 192, 269 126, 224 126" fill="none" stroke="#9aa5b1" stroke-width="1.2"/>
    <path d="M 314 192 C 269 192, 269 280, 224 280" fill="none" stroke="#9aa5b1" stroke-width="1.2"/>
    <path d="M 374 192 C 419 192, 419 60, 464 60" fill="none" stroke="#9aa5b1" stroke-width="1.2"/>
    <path d="M 374 192 C 419 192, 419 192, 464 192" fill="none" stroke="#9aa5b1" stroke-width="1.2"/>
    <path d="M 374 192 C 419 192, 419 324, 464 324" fill="none" stroke="#9aa5b1" stroke-width="1.2"/>
    <path d="M 164 126 C 119 126, 119 60, 74 60" fill="none" stroke="#9aa5b1" stroke-width="1.2"/>
    <path d="M 164 126 C 119 126, 119 104, 74 104" fill="none" stroke="#9aa5b1" stroke-width="1.2"/>
    <path d="M 164 126 C 119 126, 119 148, 74 148" fill="none" stroke="#9aa5b1" stroke-width="1.2"/>
    <path d="M 164 126 C 119 126, 119 192, 74 192" fill="none" stroke="#9aa5b1" stroke-width="1.2"/>
    <path d="M 164 280 C 119 280, 119 236, 74 236" fill="none" stroke="#9aa5b1" stroke-width="1.2"/>
    <path d="M 164 280 C 119 280, 119 280, 74 280" fill="none" stroke="#9aa5b1" stroke-width="1.2"/>
    <path d="M 164 280 C 119 280, 119 324, 74 324" fill="none" stroke="#9aa5b1" stroke-width="1.2"/>
    <path d="M 524 60 C 569 60, 569 16, 614 16" fill="none" stroke="#9aa5b1" stroke-width="1.2"/>
    <path d="M 524 60 C 569 60, 569 60, 614 60" fill="none" stroke="#9aa5b1" stroke-width="1.2"/>
    <path d="M 524 60 C 569 60, 569 104, 614 104" fill="none" stroke="#9aa5b1" stroke-width="1.2"/>
    <path d="M 524 192 C 569 192, 569 148, 614 148" fill="none" stroke="#9aa5b1" stroke-width="1.2"/>
    <path d="M 524 192 C 569 192, 569 192, 614 192" fill="none" stroke="#9aa5b1" stroke-width="1.2"/>
    <path d="M 524 192 C 569 192, 569 236, 614 236" fill="none" stroke="#9aa5b1" stroke-width="1.2"/>
    <path d="M 524 324 C 569 324, 569 280, 614 280" fill="none" stroke="#9aa5b1" stroke-width="1.2"/>
    <path d="M 524 324 C 569 324, 569 324, 614 324" fill="none" stroke="#9aa5b1" stroke-width="1.2"/>
    <path d="M 524 324 C 569 324, 569 368, 614 368" fill="none" stroke="#9aa5b1" stroke-width="1.2"/>
    <rect x="314" y="176" width="60" height="32" rx="10" fill="#2c3e50" stroke="none" stroke-width="1.2"/>
    <text class="mm-root-text" x="344" y="198.3" text-anchor="middle">操作系统</text>
    <rect x="164" y="110" width="60" height="32" rx="8" fill="#e74c3c" stroke="#c3cad2" stroke-width="1.2"/>
    <text class="mm-text" x="194" y="130.9" text-anchor="middle">进程管理</text>
    <rect x="7" y="44" width="67" height="32" rx="6" fill="#ffffff" stroke="#c3cad2" stroke-width="1.2"/>
    <text class="mm-text" x="40.5" y="64.9" text-anchor="middle">进程与线程</text>
    <rect x="14" y="88" width="60" height="32" rx="6" fill="#ffffff" stroke="#c3cad2" stroke-width="1.2"/>
    <text class="mm-text" x="44" y="108.9" text-anchor="middle">调度算法</text>
    <rect x="14" y="132" width="60" height="32" rx="6" fill="#ffffff" stroke="#c3cad2" stroke-width="1.2"/>
    <text class="mm-text" x="44" y="152.9" text-anchor="middle">同步互斥</text>
    <rect x="0" y="176" width="74" height="32" rx="6" fill="#ffffff" stroke="#c3cad2" stroke-width="1.2"/>
    <text class="mm-text" x="37" y="196.9" text-anchor="middle">IPC 通信</text>
    <rect x="164" y="264" width="60" height="32" rx="8" fill="#3498db" stroke="#c3cad2" stroke-width="1.2"/>
    <text class="mm-text" x="194" y="284.9" text-anchor="middle">内存管理</text>
    <rect x="14" y="220" width="60" height="32" rx="6" fill="#ffffff" stroke="#c3cad2" stroke-width="1.2"/>
    <text class="mm-text" x="44" y="240.9" text-anchor="middle">分页分段</text>
    <rect x="14" y="264" width="60" height="32" rx="6" fill="#ffffff" stroke="#c3cad2" stroke-width="1.2"/>
    <text class="mm-text" x="44" y="284.9" text-anchor="middle">虚拟内存</text>
    <rect x="14" y="308" width="60" height="32" rx="6" fill="#ffffff" stroke="#c3cad2" stroke-width="1.2"/>
    <text class="mm-text" x="44" y="328.9" text-anchor="middle">页面置换</text>
    <rect x="464" y="44" width="60" height="32" rx="8" fill="#2ecc71" stroke="#c3cad2" stroke-width="1.2"/>
    <text class="mm-text" x="494" y="64.9" text-anchor="middle">文件系统</text>
    <rect x="614" y="0" width="60" height="32" rx="6" fill="#ffffff" stroke="#c3cad2" stroke-width="1.2"/>
    <text class="mm-text" x="644" y="20.9" text-anchor="middle">目录结构</text>
    <rect x="614" y="44" width="60" height="32" rx="6" fill="#ffffff" stroke="#c3cad2" stroke-width="1.2"/>
    <text class="mm-text" x="644" y="64.9" text-anchor="middle">文件分配</text>
    <rect x="614" y="88" width="60" height="32" rx="6" fill="#ffffff" stroke="#c3cad2" stroke-width="1.2"/>
    <text class="mm-text" x="644" y="108.9" text-anchor="middle">磁盘管理</text>
    <rect x="464" y="176" width="60" height="32" rx="8" fill="#f39c12" stroke="#c3cad2" stroke-width="1.2"/>
    <text class="mm-text" x="494" y="196.9" text-anchor="middle">设备管理</text>
    <rect x="614" y="132" width="74" height="32" rx="6" fill="#ffffff" stroke="#c3cad2" stroke-width="1.2"/>
    <text class="mm-text" x="651" y="152.9" text-anchor="middle">I/O 控制</text>
    <rect x="614" y="176" width="60" height="32" rx="6" fill="#ffffff" stroke="#c3cad2" stroke-width="1.2"/>
    <text class="mm-text" x="644" y="196.9" text-anchor="middle">缓冲技术</text>
    <rect x="614" y="220" width="88" height="32" rx="6" fill="#ffffff" stroke="#c3cad2" stroke-width="1.2"/>
    <text class="mm-text" x="658" y="240.9" text-anchor="middle">SPOOLing</text>
    <rect x="464" y="308" width="60" height="32" rx="8" fill="#9b59b6" stroke="#c3cad2" stroke-width="1.2"/>
    <text class="mm-text" x="494" y="328.9" text-anchor="middle">死锁</text>
    <rect x="614" y="264" width="60" height="32" rx="6" fill="#ffffff" stroke="#c3cad2" stroke-width="1.2"/>
    <text class="mm-text" x="644" y="284.9" text-anchor="middle">必要条件</text>
    <rect x="614" y="308" width="60" height="32" rx="6" fill="#ffffff" stroke="#c3cad2" stroke-width="1.2"/>
    <text class="mm-text" x="644" y="328.9" text-anchor="middle">处理方法</text>
    <rect x="614" y="352" width="67" height="32" rx="6" fill="#ffffff" stroke="#c3cad2" stroke-width="1.2"/>
    <text class="mm-text" x="647.5" y="372.9" text-anchor="middle">银行家算法</text>
  </g>
</svg>
